<mxfile host="app.diagrams.net" modified="2024-02-04T02:06:01.954Z" agent="Mozilla/5.0 (Windows NT 10.0; Win64; x64) AppleWebKit/537.36 (KHTML, like Gecko) Chrome/121.0.0.0 Safari/537.36" version="21.5.2" etag="YYJ60l-GjgUYKG15MBk2" type="github">
  <diagram name="페이지-1" id="Z0Rlrkpl-HLmqAnvHj4v">
    <mxGraphModel>
      <root>
        <mxCell id="0" />
        <mxCell id="1" parent="0" />
      </root>
    </mxGraphModel>
  </diagram>
</mxfile>
